# Blender v2.93.4 OBJ File: 'Barricada.blend'
# www.blender.org
mtllib Barricada.mtl
o Cube_Cube.001
v 0.662540 -1.000000 2.898049
v 0.662540 1.000000 2.898049
v 0.662540 -1.000000 -6.081051
v 0.662540 1.000000 -6.081051
v 1.000000 -1.000000 1.000000
v 1.000000 1.000000 1.000000
v 1.000000 -1.000000 -4.183002
v 1.000000 1.000000 -4.183002
vt 0.375000 0.000000
vt 0.625000 0.000000
vt 0.625000 0.250000
vt 0.375000 0.250000
vt 0.125000 0.500000
vt 0.375000 0.500000
vt 0.375000 0.750000
vt 0.125000 0.750000
vt 0.625000 0.500000
vt 0.875000 0.500000
vt 0.875000 0.750000
vt 0.625000 0.750000
vt 0.999339 -0.000059
vt 1.001018 0.995717
vt 0.002772 0.997303
vt 0.000172 -0.000852
vt 1.003331 0.001160
vt 1.000347 1.005477
vt 0.002845 0.999405
vt 0.005829 -0.004913
vt 0.999178 -0.005874
vt 0.993737 0.998531
vt 0.002365 0.995880
vt 0.004571 -0.006652
vn -1.0000 0.0000 0.0000
vn 0.0000 -1.0000 0.0000
vn 0.0000 1.0000 0.0000
vn 0.9846 0.0000 -0.1750
vn 0.9846 0.0000 0.1750
vn 1.0000 0.0000 0.0000
g Cube_Cube.001_Background
usemtl Background
s off
f 1/1/1 2/2/1 4/3/1 3/4/1
f 3/5/2 7/6/2 5/7/2 1/8/2
f 8/9/3 4/10/3 2/11/3 6/12/3
g Cube_Cube.001_Logo1
usemtl Logo1
f 3/13/4 4/14/4 8/15/4 7/16/4
f 5/17/5 6/18/5 2/19/5 1/20/5
g Cube_Cube.001_Logo2
usemtl Logo2
f 7/21/6 8/22/6 6/23/6 5/24/6
